<svg width="83" height="83" fill="none" xmlns="http://www.w3.org/2000/svg"><path d="M82.25 74.936c0 3.604-2.918 6.692-6.694 6.692H7.942c-3.604 0-6.693-3.088-6.693-6.692V7.323C1.25 3.548 4.34.631 7.942.631h67.614c3.776 0 6.693 2.917 6.693 6.692v67.613z" fill="#FF0"/><path d="M82.343 74.783c0 3.588-3.083 6.653-6.848 6.653h-67.3c-3.77 0-6.852-3.074-6.852-6.653V7.465A6.865 6.865 0 0 1 8.195.631h67.3a6.865 6.865 0 0 1 6.848 6.834v67.318z" stroke="#000" stroke-width="1.16"/><path d="M30.08 31.52h-5.492v8.236h5.492c2.574 0 4.29-1.716 4.29-4.118 0-2.403-1.716-4.119-4.29-4.119zm.343 13.556h-5.835v11.326h-5.835v-30.03h11.67c6.178 0 9.782 4.29 9.782 9.266 0 5.148-3.604 9.438-9.782 9.438zM62 53.141c-2.403 2.574-5.32 3.432-8.41 3.432-3.432 0-6.006-1.201-8.237-3.26-2.917-3.09-2.917-6.865-2.917-12.013s0-8.923 2.917-12.012c2.231-2.06 4.805-3.26 8.237-3.26 6.865 0 10.469 4.633 11.155 9.61H58.91c-.686-2.746-2.402-4.29-5.32-4.29-1.716 0-2.917.514-3.775 1.544-1.201 1.2-1.544 2.745-1.544 8.408 0 5.835.343 7.208 1.544 8.409.858 1.03 2.06 1.544 3.775 1.544 1.716 0 3.09-.514 4.119-1.544 1.03-1.201 1.373-2.574 1.373-4.119v-1.03H53.59v-4.976h11.327v4.462c0 4.29-.858 6.864-2.918 9.095z" fill="#000"/><path d="M70.751 20.366v41.357H12.92V20.366H70.75zm.858-1.887H11.031v45.303H72.64V18.48h-1.03z" fill="#000"/></svg>