<svg width="74" height="73" fill="none" xmlns="http://www.w3.org/2000/svg"><path fill-rule="evenodd" clip-rule="evenodd" d="M53.727 6.75c-1.287-1.271-2.908-1.658-4.753-1.658H24.039c-1.844 0-3.466.387-4.753 1.658L6.596 19.47c-1.51 1.493-2.18 3.262-2.18 5.31v24.386c-.056 2.047.614 3.54 2.067 4.978l12.469 12.332c1.454 1.438 3.075 2.102 5.087 2.102h24.935c2.012 0 3.635-.664 5.089-2.102l12.466-12.332c1.454-1.383 2.069-2.93 2.069-4.978v-8.405c-.056-.718-.448-1.105-1.174-1.105h-3.746v2.598c0 1.935-.28 2.931-1.956 2.931h-1.679c-1.676 0-1.956-.996-1.956-2.93v-2.6h-2.628c-1.957 0-2.962-.276-2.962-1.935v-1.77c0-1.659 1.005-1.936 2.962-1.936h2.628v-2.598c0-1.936.28-2.932 1.956-2.932h1.679c1.677 0 1.956.996 1.956 2.932v2.598h3.746c.782 0 1.173-.441 1.173-1.272V24.78c0-2.048-.725-3.817-2.18-5.31L53.728 6.75z" fill="#FFFFFE"/><path fill-rule="evenodd" clip-rule="evenodd" d="M69.047 32.406c0 .83-.392 1.272-1.173 1.272h-3.747v-2.599c0-1.935-.28-2.931-1.956-2.931h-1.679c-1.676 0-1.956.996-1.956 2.931v2.599h-2.628c-1.957 0-2.962.277-2.962 1.936v1.77c0 1.658 1.005 1.935 2.962 1.935h2.628v2.599c0 1.935.28 2.931 1.956 2.931h1.679c1.677 0 1.956-.996 1.956-2.931v-2.599h3.747c.725 0 1.117.387 1.173 1.105v8.406c0 2.047-.615 3.595-2.069 4.977L54.512 66.14c-1.454 1.439-3.077 2.103-5.089 2.103H24.488c-2.012 0-3.633-.664-5.087-2.103L6.932 53.807C5.48 52.37 4.81 50.877 4.865 48.83V24.443c0-2.047.67-3.816 2.18-5.309l12.69-12.72c1.287-1.271 2.91-1.658 4.753-1.658h24.935c1.845 0 3.466.387 4.753 1.658l12.69 12.72c1.455 1.493 2.18 3.262 2.18 5.31v7.962zm-11.462-29.2C55.405 1.107 52.665 0 49.368 0H24.545c-3.3 0-6.095 1.106-8.22 3.207L3.188 16.147C1.119 18.195 0 20.904 0 23.89v24.94c0 3.428 1.175 6.083 3.524 8.351L15.99 69.513c2.46 2.433 5.2 3.539 8.722 3.484h24.487c3.41 0 6.206-.996 8.721-3.484L70.39 57.18c2.291-2.268 3.522-4.977 3.522-8.351V23.89c0-2.987-1.119-5.696-3.187-7.742L57.585 3.207z" fill="#1A1919"/><path fill-rule="evenodd" clip-rule="evenodd" d="M36.643 48.445c-3.97 0-5.144-1.105-5.144-4.369v-5.254c1.398-.332 2.907-.663 4.528-.663 4.306 0 5.256 1.107 5.256 4.977 0 3.54-.503 5.31-4.64 5.31zm.112-15.263c-1.398 0-2.796.11-4.25.388-.558.11-1.006-.11-1.006-.775V31.69c0-5.2.391-7.078 4.808-7.078 3.802 0 4.64.22 4.64 2.93 0 1.105.782 1.438 2.07 1.438h1.342c1.565 0 2.18-.388 2.18-1.881 0-6.526-2.852-8.185-9.392-8.185-10.232 0-11.406 4.093-11.406 17.033.055 12.498-.671 18.029 10.79 18.029 7.269 0 10.51-2.379 10.51-11.503 0-7.521-3.52-9.29-10.286-9.29z" fill="#1A1919"/></svg>