<svg width="57" height="78" fill="none" xmlns="http://www.w3.org/2000/svg"><path d="M55.058.553H1.145v76.603h54.308V.553h-.395z" fill="#fff"/><path d="M54.042 1.994H2.566v73.752h51.476V1.994z" fill="#000"/><path d="M51.29 14.143H5.282V59.89H51.29V14.144z" fill="#fff"/><path d="M55.645 0H.561v77.702h55.476V0h-.392zm-.398 76.952H1.35V.75h53.896v76.202z" fill="#000"/><path d="M7.629 64.437l-.019.236c-.04.747-.297 1.321-1.185 1.321-1.31 0-1.39-.797-1.39-1.89v-.584c.034-1.048.12-1.817 1.39-1.817.707.007 1.105.359 1.16 1.059.014.098.025.21.018.312H6.82c-.033-.263-.007-.758-.395-.758-.628 0-.573.72-.573 1.04v1.128c0 .34.028.889.573.889.435 0 .388-.671.402-.936h.802zM8.227 63.518c.032-1.048.12-1.817 1.389-1.817 1.273 0 1.356.769 1.389 1.817v.584c0 1.093-.084 1.893-1.389 1.893s-1.389-.8-1.389-1.893v-.584zm.816.966c0 .339.025.887.573.887.566 0 .573-.559.573-.954v-1.044c0-.327.018-1.057-.573-1.057-.623 0-.573.72-.573 1.039v1.13zM13.638 61.8h.797v4.093h-.83l-.624-1.458c-.206-.486-.377-.98-.565-1.627h-.012c.03.343.062.753.088 1.173.021.407.04.812.04 1.14v.772h-.795V61.8h.823l.617 1.492c.203.471.377.957.57 1.625h.01c-.029-.37-.057-.773-.08-1.165-.021-.391-.04-.783-.04-1.15v-.802zM14.918 61.8h2.65v.603h-.924v3.49h-.798v-3.49h-.928V61.8zM18.022 65.893V61.8h2.241v.602H18.82v1.03h1.331v.602h-1.33v1.26h1.443v.598h-2.241zM22.79 61.8h.795v4.093h-.83l-.617-1.458c-.21-.486-.38-.98-.569-1.627h-.011c.03.343.062.753.087 1.173.025.407.04.812.04 1.14v.772h-.798V61.8h.823l.62 1.492c.208.471.374.957.57 1.625h.012c-.03-.37-.059-.773-.08-1.165-.023-.391-.04-.783-.04-1.15v-.802h-.002zM24.07 61.8h2.652v.603h-.928v3.49H25v-3.49h-.93V61.8zM29.405 64.127v1.766h-.797v-4.094h1.505c.689 0 1.207.228 1.207.982 0 .448-.116.914-.649.987v.014c.472.06.613.345.613.743 0 .165-.022 1.167.17 1.291v.077h-.878c-.094-.261-.075-.77-.083-1.033-.004-.254 0-.595-.272-.675-.217-.062-.446-.058-.675-.058h-.14zm0-.598h.624c.261-.015.464-.174.464-.592 0-.456-.2-.532-.497-.536h-.59v1.128zM31.755 65.893l1.019-4.09h1.07l.964 4.09h-.848l-.21-1.035h-.932l-.21 1.035h-.853zm1.186-1.635h.681l-.213-1.164c-.04-.192-.055-.373-.08-.566a2.997 2.997 0 0 0-.029-.275h-.007c-.018.087-.022.177-.03.275-.028.192-.046.373-.083.566l-.24 1.164zM34.96 61.8h2.652v.603h-.925v3.49h-.798v-3.49h-.928V61.8zM38.068 65.893V61.8h2.238v.602h-1.44v1.03h1.324v.602h-1.324v1.26h1.44v.598h-2.238zM40.955 65.893V61.8h1.658c.191 0 .58.078.823.459.18.286.228.743.228 1.414 0 .809 0 1.744-.65 2.117-.173.091-.39.102-.59.102h-1.47zm1.139-.6c.71 0 .758-.36.758-1.543 0-.972-.106-1.349-.58-1.349h-.523v2.892h.345zM45.807 65.893v-4.094h1.28c.345 0 .682.018.903.3.182.226.215.458.215.734 0 .355-.084.707-.511.859v.01c.442.063.616.422.616.954 0 .167-.01.334-.058.5-.17.52-.478.737-1.04.737h-1.405zm.962-.602c.167 0 .337.016.482-.04.215-.096.24-.366.24-.569 0-.439-.09-.631-.58-.631h-.309v1.24h.167zm-.023-1.837c.197 0 .443.01.57-.147.073-.105.084-.24.084-.442 0-.301-.066-.453-.432-.46h-.366v1.05h.145zM49.981 62.873c.084.203.153.413.185.629h.015c.058-.32.166-.546.26-.77l.377-.93h.87l-1.124 2.35v1.74h-.794v-1.74l-1.105-2.351h.866l.45 1.072zM5.178 73.148V67.1h8.587v1.416H8.626v.865h4.348v1.407H8.626v.95h5.338v1.41H5.178zM22.599 68.86c-.055-.204-.247-.338-.497-.411a3.086 3.086 0 0 0-.892-.112c-.758 0-1.1.13-1.1.35 0 .901 6.057.343 6.057 2.537 0 1.403-2.035 2.085-4.929 2.085-2.777 0-4.59-.929-4.663-2.02h3.303c.073.217.28.377.573.474.275.102.638.153.98.153.863 0 1.435-.16 1.435-.445 0-.916-6.06-.288-6.06-2.595 0-1.287 1.934-1.933 4.566-1.933 2.923 0 4.254.86 4.505 1.915h-3.278v.001zM32.463 71.045v2.105H29.01v-6.048h4.972c3.507 0 4.664.55 4.664 1.726 0 .7-.54 1.28-1.766 1.48 1.109.235 1.784.38 1.784 1.602 0 .787-.048 1.057.362 1.057v.183H35.53c-.087-.134-.175-.522-.175-1.059 0-.79-.236-1.046-1.841-1.046h-1.052zm0-1.326h1.356c1.07 0 1.639-.157 1.639-.576 0-.422-.58-.628-1.39-.628h-1.606v1.204zM42.014 73.148V67.1h5.03c2.372 0 4.258.324 4.258 1.523 0 .623-.704 1.077-1.375 1.316 1.139.167 1.751.734 1.751 1.385 0 1.353-1.794 1.825-4.532 1.825h-5.132zm3.45-2.523v1.113h1.504c.852 0 1.494-.101 1.494-.555 0-.529-.802-.558-1.904-.558h-1.095zm0-2.11v1.01h1.435c.686 0 1.186-.18 1.186-.53 0-.472-.678-.48-1.403-.48h-1.219z" fill="#fff"/><path d="M6.635 18.232c0-1.331 1.182-2.416 2.661-2.416 1.466 0 2.644 1.085 2.644 2.416 0 1.345-1.179 2.431-2.644 2.431-1.479 0-2.661-1.086-2.661-2.431zm4.838 0c0-1.095-.969-1.988-2.176-1.988-1.211 0-2.194.893-2.194 1.988 0 1.105.983 2.005 2.194 2.005 1.208 0 2.176-.899 2.176-2.005zM8.73 18.4v1.227h-.485v-2.857h1.012c.573 0 1.153.141 1.153.79 0 .324-.21.587-.623.667v.013c.42.074.478.255.525.564.048.268.077.565.186.823h-.624c-.037-.16-.083-.348-.105-.514-.03-.243-.03-.475-.174-.603-.12-.11-.283-.098-.453-.11H8.73zm.519-.45c.454-.013.566-.194.566-.404 0-.214-.112-.33-.5-.33h-.584v.734h.518z" fill="#000"/><path d="M49.285 10.492V8.889h2.343V7.405h-2.343V6.033h2.42V4.537H47.41v7.434h4.309v-1.48h-2.434zM44.45 8.697h-.028l-1.45-4.16h-1.927v7.436h1.777l-.17-4.14.022-.02 1.454 4.16h1.919V4.537H44.27l.18 4.16zM37.405 4.406c-1.64 0-2.553.79-2.553 2.212V9.65c0 1.675.656 2.546 2.553 2.546 1.9 0 2.524-.87 2.524-2.546V6.619c0-1.422-.889-2.213-2.524-2.213zm.646 5.39c0 .43-.044 1.058-.646 1.058-.605 0-.685-.63-.685-1.059v-3.05c0-.46.08-1.002.674-1.002.613 0 .657.542.657 1.003v3.05zM31.219 6.972h-.026l-.94-2.435h-1.892l1.885 4.312v3.122h1.872V8.85l1.929-4.312h-1.871l-.957 2.435zM27.679 9.274c-.029-.515-.402-.853-.921-.956v-.031c.787-.323.99-.898.99-1.69 0-1.472-.772-2.06-2.299-2.06h-2.742v7.437h1.875V9.037h.624c.436.039.577.33.638.79.047.458.004 1.07.04 1.725.007.143.051.285.105.422h2.046v-.097a.52.52 0 0 1-.181-.249c-.107-.48-.12-1.76-.175-2.354zm-2.458-1.57h-.639V5.883c.918-.014 1.31.015 1.31.896 0 .466-.128.927-.671.927zM19.08 8.89h2.347V7.405h-2.346V6.033h2.426V4.54H17.21v7.434h4.416v-1.48h-2.545V8.888zM13.445 9.755h-.021l-.957-5.218h-1.875l1.733 7.437h2.205l1.752-7.437h-1.875l-.962 5.218zM7.284 8.89H9.65V7.405H7.284V6.033h2.441V4.54H5.403v7.434h4.449v-1.48H7.284V8.888z" fill="#fff"/><path d="M10.516 22.978l28.441-7.205 2.608 9.206-16.769 4.252 1.074 3.766 16.765-4.243 2.614 9.208-16.775 4.246 1.12 3.97L46.37 41.93l2.608 9.208-28.438 7.204-10.023-35.364z" fill="#000"/></svg>